<svg xmlns="http://www.w3.org/2000/svg" viewBox="0 0 90.51 89.09"><defs><style>.cls-1{fill:#fff;}</style></defs><g id="Layer_2" data-name="Layer 2"><g id="Layer_1-2" data-name="Layer 1"><path class="cls-1" d="M87.51,23.21H65.88V3a3,3,0,0,0-3-3H3A3,3,0,0,0,0,3V62.88a3,3,0,0,0,3,3H24.63V86.09a3,3,0,0,0,3,3H87.51a3,3,0,0,0,3-3V26.21A3,3,0,0,0,87.51,23.21Zm-3,59.88H30.63V29.21h3.21a3,3,0,0,0,0-6H27.63a3,3,0,0,0-3,3V59.88H6V6H59.88V23.21h-3.5a3,3,0,0,0,0,6H84.51Z"/><path class="cls-1" d="M70.84,39.18,63,56.66a2.92,2.92,0,0,0,.1-2.17,3,3,0,0,1-2,3.7,2.94,2.94,0,0,1-.92.14,3,3,0,0,1-2.66-1.63,2.92,2.92,0,0,0,1.48,1.48L41.59,50.37A3,3,0,1,1,44,44.89l11.15,5C48.87,33.09,40.46,22.22,29,15.93a3,3,0,0,1,2.89-5.26C47.61,19.3,55.8,34.46,60.65,47.29l4.71-10.56a3,3,0,1,1,5.48,2.45Z"/><path class="cls-1" d="M63,56.66a3,3,0,0,1-2.74,1.78,3.15,3.15,0,0,1-1.22-.26,2.92,2.92,0,0,1-1.48-1.48,3,3,0,0,0,2.66,1.63,2.94,2.94,0,0,0,.92-.14,3,3,0,0,0,2-3.7A2.92,2.92,0,0,1,63,56.66Z"/><path class="cls-1" d="M63,56.66a3,3,0,0,1-2.74,1.78,3.15,3.15,0,0,1-1.22-.26,2.92,2.92,0,0,1-1.48-1.48,3,3,0,0,0,2.66,1.63,2.94,2.94,0,0,0,.92-.14,3,3,0,0,0,2-3.7A2.92,2.92,0,0,1,63,56.66Z"/></g></g></svg>