<?xml version="1.0" encoding="utf-8" ?>
<svg xmlns="http://www.w3.org/2000/svg" xmlns:xlink="http://www.w3.org/1999/xlink" width="780" height="920">
	<path fill="#101417" d="M408.997 65.485C440.99 63.5835 478.413 63.8651 509.536 71.5786C515.067 72.9494 520.437 75.1048 525.766 77.1066C546.21 84.7859 565.866 94.3726 582.325 108.968C615.307 138.215 639.747 189.485 645.699 232.733C675.714 244.846 710.593 255.909 732.891 280.49C735.961 283.875 739.482 287.778 741.255 292.038C742.195 294.298 742.355 296.344 741.296 298.593C737.676 306.285 724.22 311.439 716.741 313.835C705.813 317.335 694.182 318.555 682.825 319.785C679.61 320.133 675.856 320.852 672.651 320.603C670.256 320.314 667.848 319.621 665.499 319.067C665.537 319.307 665.567 319.548 665.613 319.786C666.561 324.722 675.462 338.529 678.146 344.093C683.036 354.403 687.458 364.927 691.399 375.635C709.394 424.507 715.686 469.827 709.482 521.796C707.804 535.851 705.636 550.041 701.504 563.611C694.826 585.541 684.757 605.896 672.763 625.369C666.122 636.15 659.011 646.62 650.76 656.243C627.284 682.438 603.634 706.964 572.784 724.603C566.923 727.954 560.654 730.936 554.429 733.555C550.161 735.351 543.042 737.326 539.483 739.936C536.785 738.632 520.77 742.306 516.862 742.921C498.241 745.852 478.767 747.563 459.943 748.319C449.8 748.726 439.829 747.829 429.737 747.049C419.112 746.227 408.611 745.453 398.021 744.164C383.38 742.381 368.48 741.485 353.983 738.756C324.574 733.22 274.312 714.55 252.578 694.406C239.73 704.637 227.828 716.003 217.017 728.366C210.475 735.929 204.605 744.1 197.909 751.522C180.261 771.084 161.744 789.979 144.36 809.76C136.245 819.114 128.054 828.402 119.787 837.623C115.373 842.472 110.914 847.926 105.572 851.773C99.073 856.523 91.0131 858.629 83.0206 857.666C69.3569 856.112 60.4926 846.183 52.1311 836.26C50.0167 833.751 48.0371 830.979 45.6348 828.741C40.8964 824.326 35.2394 822.68 31.0557 817.335C27.8876 813.288 25.104 807.631 25.6616 802.365C26.5294 794.171 48.5768 772.989 55.1706 768.078L55.6477 767.73C57.3031 764.961 70.5179 752.778 73.918 749.285L126.778 695.102C134.357 687.425 142.09 678.325 150.403 671.529L151.63 670.155C164.18 657.447 175.55 643.767 187.208 630.253L188.216 629.134C166.801 594.877 155.944 573.962 146.35 534.182C131.121 470.557 139.851 403.553 170.875 345.952C175.378 337.391 180.403 329.299 185.766 321.256C188.154 317.675 190.809 314.298 193.056 310.623C192.209 310.167 190.447 310.66 189.449 310.8C172.433 314.384 145.822 312.466 131.191 303.029C126.887 300.254 121.728 295.912 120.736 290.595C119.923 286.233 121.769 282.47 124.139 278.984C136.328 260.926 176.641 241.519 196.881 233.07C206.649 228.993 216.729 225.651 226.546 221.676C226.965 221.449 227.195 221.336 227.61 221.054C230.751 218.915 229.145 214.452 229.769 211.188C229.792 211.069 229.818 210.951 229.842 210.833C230.28 206.219 231.507 201.783 233.287 197.518C234.187 193.526 236.79 188.87 238.449 185.085C248.339 162.522 260.437 143.453 277.287 125.404C305.672 94.9989 342.195 76.6943 382.89 69.0596C391.53 67.4388 400.191 65.7838 408.997 65.485Z"/>
	<defs>
		<linearGradient id="gradient_0" gradientUnits="userSpaceOnUse" x1="467.43256" y1="398.03494" x2="359.28763" y2="82.401459">
			<stop offset="0" stop-color="#544024"/>
			<stop offset="1" stop-color="#6E5734"/>
		</linearGradient>
	</defs>
	<path fill="url(#gradient_0)" d="M408.997 65.485C440.99 63.5835 478.413 63.8651 509.536 71.5786C515.067 72.9494 520.437 75.1048 525.766 77.1066C546.21 84.7859 565.866 94.3726 582.325 108.968C615.307 138.215 639.747 189.485 645.699 232.733C675.714 244.846 710.593 255.909 732.891 280.49C735.961 283.875 739.482 287.778 741.255 292.038C742.195 294.298 742.355 296.344 741.296 298.593C737.676 306.285 724.22 311.439 716.741 313.835C705.813 317.335 694.182 318.555 682.825 319.785C679.61 320.133 675.856 320.852 672.651 320.603C670.256 320.314 667.848 319.621 665.499 319.067C664.483 317.646 663.884 316.154 663.235 314.548C651.513 304.575 640.618 293.42 629.54 282.735C623 276.428 616.342 269.901 609.05 264.463C597.344 255.734 583.983 249.249 570.292 244.298C560.209 240.652 549.98 237.435 539.276 236.317C534.083 239.066 530.274 243.698 526.28 247.896C523.408 250.134 520.548 252.619 517.517 254.62C513.674 257.156 509.268 259.196 505.208 261.379C499.028 264.701 492.873 268.193 486.556 271.246C467.797 275.044 449.704 278.085 430.542 278.954C396.564 280.494 362.623 279.022 328.647 279.093C314.323 279.123 299.869 278.887 285.563 279.443C279.654 279.673 273.841 280.899 267.929 281.022C255.69 281.277 243.465 280.863 231.206 281.207C226.163 281.349 220.85 281.267 215.89 282.208C213.399 282.68 211.616 284.043 209.942 285.908C201.811 292.288 197.39 305.967 189.449 310.8C172.433 314.384 145.822 312.466 131.191 303.029C126.887 300.254 121.728 295.912 120.736 290.595C119.923 286.233 121.769 282.47 124.139 278.984C136.328 260.926 176.641 241.519 196.881 233.07C206.649 228.993 216.729 225.651 226.546 221.676C226.965 221.449 227.195 221.336 227.61 221.054C230.751 218.915 229.145 214.452 229.769 211.188C229.792 211.069 229.818 210.951 229.842 210.833C230.28 206.219 231.507 201.783 233.287 197.518C234.187 193.526 236.79 188.87 238.449 185.085C248.339 162.522 260.437 143.453 277.287 125.404C305.672 94.9989 342.195 76.6943 382.89 69.0596C391.53 67.4388 400.191 65.7838 408.997 65.485Z"/>
	<path fill="#987B47" d="M226.546 221.676C238.61 222.103 254.728 218.239 266.993 216.197C277.021 214.527 287.093 213.447 297.216 212.547C318.281 210.843 339.409 210.033 360.542 210.118C376.2 210.127 391.828 210.323 407.43 211.797C428.887 213.823 449.798 217.549 470.929 221.653C481.036 223.616 496.451 225.079 504.568 231.464C481.944 256.052 439.828 259.136 408.642 261.805C391.095 263.295 373.518 264.416 355.923 265.167C331.417 266.193 306.676 266.437 282.147 266.277C264.674 266.163 247.146 265.584 229.678 266.083C207.605 266.76 185.586 268.642 163.719 271.719C150.714 273.595 137.295 275.464 124.914 279.997C124.184 279.521 124.455 279.849 124.139 278.984C136.328 260.926 176.641 241.519 196.881 233.07C206.649 228.993 216.729 225.651 226.546 221.676Z"/>
	<path fill="#987B47" d="M233.287 197.518C234.187 193.526 236.79 188.87 238.449 185.085C248.339 162.522 260.437 143.453 277.287 125.404C305.672 94.9989 342.195 76.6943 382.89 69.0596C391.53 67.4388 400.191 65.7838 408.997 65.485C407.821 65.8926 407.479 66.1193 406.623 67.0421C405.172 68.6047 387.416 74.1578 383.628 75.9391C352.965 90.358 336.348 125.231 335.83 157.907C335.685 164.328 336.524 170.734 338.317 176.901C312.113 178.534 286.177 183.125 261.005 190.587C253.015 192.943 244.984 195.295 237.612 199.273C233.39 199.954 235.286 201.186 233.006 202.867C233.042 201.081 233.171 199.301 233.287 197.518Z"/>
	<path fill="#9B7338" d="M229.842 210.833C230.28 206.219 231.507 201.783 233.287 197.518C233.171 199.301 233.042 201.081 233.006 202.867C235.286 201.186 233.39 199.954 237.612 199.273C235.825 201.248 235.122 207.928 233.085 208.409C232.45 207.923 231.926 207.499 231.185 207.177C230.905 208.638 230.636 210.1 230.38 211.565C229.892 211.037 230.042 211.3 229.842 210.833Z"/>
	<path fill="#1C2325" d="M663.235 314.548C665.577 315.641 671.168 317.393 672.594 319.34L672.651 320.603C670.256 320.314 667.848 319.621 665.499 319.067C664.483 317.646 663.884 316.154 663.235 314.548Z"/>
	<path fill="#987B47" d="M426.419 75.2024C431.525 75.0174 436.637 75.209 441.714 75.7755C458.992 77.7474 479.847 84.8418 490.927 98.869C494.521 103.419 497.051 108.697 499.479 113.931C509.771 136.122 514.857 162.435 511.867 186.839C488.438 181.742 463.486 179.02 439.536 177.556C420.99 176.447 402.423 175.73 383.847 175.404C370.481 175.196 356.797 174.797 343.55 176.732C348.373 150.277 351.08 127.658 369.607 106.318C382.961 90.9363 405.645 76.6315 426.419 75.2024Z"/>
	<path fill="#101417" d="M539.276 236.317C549.98 237.435 560.209 240.652 570.292 244.298C583.983 249.249 597.344 255.734 609.05 264.463C616.342 269.901 623 276.428 629.54 282.735C640.618 293.42 651.513 304.575 663.235 314.548C663.884 316.154 664.483 317.646 665.499 319.067C665.537 319.307 665.567 319.548 665.613 319.786C666.561 324.722 675.462 338.529 678.146 344.093C683.036 354.403 687.458 364.927 691.399 375.635C709.394 424.507 715.686 469.827 709.482 521.796C707.804 535.851 705.636 550.041 701.504 563.611C694.826 585.541 684.757 605.896 672.763 625.369C666.122 636.15 659.011 646.62 650.76 656.243C627.284 682.438 603.634 706.964 572.784 724.603C566.923 727.954 560.654 730.936 554.429 733.555C550.161 735.351 543.042 737.326 539.483 739.936C536.785 738.632 520.77 742.306 516.862 742.921C498.241 745.852 478.767 747.563 459.943 748.319C449.8 748.726 439.829 747.829 429.737 747.049C419.112 746.227 408.611 745.453 398.021 744.164C383.38 742.381 368.48 741.485 353.983 738.756C324.574 733.22 274.312 714.55 252.578 694.406C239.73 704.637 227.828 716.003 217.017 728.366C210.475 735.929 204.605 744.1 197.909 751.522C180.261 771.084 161.744 789.979 144.36 809.76C136.245 819.114 128.054 828.402 119.787 837.623C115.373 842.472 110.914 847.926 105.572 851.773C99.073 856.523 91.0131 858.629 83.0206 857.666C69.3569 856.112 60.4926 846.183 52.1311 836.26C50.0167 833.751 48.0371 830.979 45.6348 828.741C40.8964 824.326 35.2394 822.68 31.0557 817.335C27.8876 813.288 25.104 807.631 25.6616 802.365C26.5294 794.171 48.5768 772.989 55.1706 768.078L55.6477 767.73C57.3031 764.961 70.5179 752.778 73.918 749.285L126.778 695.102C134.357 687.425 142.09 678.325 150.403 671.529L151.63 670.155C164.18 657.447 175.55 643.767 187.208 630.253L188.216 629.134C193.266 636.476 199.04 643.222 204.755 650.05C207.034 652.773 210.059 655.577 211.878 658.596L216.606 663.295C259.24 703.724 307.232 727.171 365.774 734.448C381.313 736.379 396.205 736.245 411.82 735.102C464.279 731.26 516.287 713.388 557.943 680.802C612.725 638.778 648.247 576.447 656.476 507.904C665.651 437.886 646.013 367.143 602.056 311.869C585.042 290.169 566.148 270.802 542.853 255.84C537.817 252.605 532.345 248.631 526.28 247.896C530.274 243.698 534.083 239.066 539.276 236.317Z"/>
	<path fill="#3A4446" d="M55.6477 767.73C57.3031 764.961 70.5179 752.778 73.918 749.285L126.778 695.102C134.357 687.425 142.09 678.325 150.403 671.529C150.413 671.664 150.426 671.798 150.434 671.932C150.617 674.712 148.598 675.709 148.504 677.84C148.335 681.702 155.821 693.11 157.345 697.884C157.243 698.628 157.121 699.125 156.642 699.727C154.357 702.602 151.031 705.097 148.356 707.631C144.992 710.818 141.854 714.246 138.712 717.65L78.4607 782.496C71.063 790.488 64.0918 798.915 56.9823 807.165C53.8534 810.796 50.2827 816 46.4242 818.725C45.9566 819.055 45.4941 819.226 44.9415 819.352C44.7154 819.43 44.493 819.52 44.2632 819.587C42.2618 820.17 38.9884 818.51 37.3443 817.483C32.8605 814.684 30.6688 810.174 29.5491 805.16C29.1674 803.451 29.0155 801.715 29.5329 800.017C32.5907 789.978 49.6325 777.531 55.466 768.038C55.5285 767.936 55.5871 767.832 55.6477 767.73Z"/>
	<path fill="#1C2325" d="M157.345 697.884C166.526 696.249 173.923 698.541 183 698.747C170.637 712.429 159.197 726.888 147.038 740.743C135.511 753.878 123.257 766.419 111.876 779.659L88.4199 807.359C84.3858 812.033 80.3912 816.997 75.8322 821.167C72.6764 824.054 70.2628 826.342 65.7737 826.527C60.7558 826.735 50.0418 824.752 46.2707 821.205C45.7188 820.686 45.3161 820.004 44.9415 819.352C45.4941 819.226 45.9566 819.055 46.4242 818.725C50.2827 816 53.8534 810.796 56.9823 807.165C64.0918 798.915 71.063 790.488 78.4607 782.496L138.712 717.65C141.854 714.246 144.992 710.818 148.356 707.631C151.031 705.097 154.357 702.602 156.642 699.727C157.121 699.125 157.243 698.628 157.345 697.884Z"/>
	<path fill="#3A4446" d="M188.216 629.134C193.266 636.476 199.04 643.222 204.755 650.05C207.034 652.773 210.059 655.577 211.878 658.596L216.606 663.295C216.508 663.45 216.405 663.601 216.312 663.759C215.928 664.411 215.879 665.021 215.766 665.754C215.623 666.686 215.483 667.537 214.962 668.342C211.984 672.95 200.236 685.151 195.708 688.061C195.182 688.399 195.173 688.385 194.687 688.598C191.434 691.349 188.102 693.833 184.606 696.263C177.386 696.571 165.337 695.725 159.463 691.085C153.292 686.211 152.302 677.388 151.63 670.155C164.18 657.447 175.55 643.767 187.208 630.253L188.216 629.134Z"/>
	<path fill="#1C2325" d="M188.216 629.134C193.266 636.476 199.04 643.222 204.755 650.05C207.034 652.773 210.059 655.577 211.878 658.596C211.393 659.578 211.484 659.776 211.628 660.881C208.488 658.705 195.5 641.118 192.544 637.169C190.87 634.933 189.313 632.049 187.208 630.253L188.216 629.134Z"/>
	<path fill="#1C2325" d="M211.878 658.596L216.606 663.295C216.508 663.45 216.405 663.601 216.312 663.759C215.928 664.411 215.879 665.021 215.766 665.754C215.623 666.686 215.483 667.537 214.962 668.342C211.984 672.95 200.236 685.151 195.708 688.061C195.182 688.399 195.173 688.385 194.687 688.598C195.63 686.07 200.357 682.755 202.432 680.711C205.528 677.661 214.953 669.658 214.608 665.053C214.517 663.852 212.518 661.626 211.628 660.881C211.484 659.776 211.393 659.578 211.878 658.596Z"/>
	<path fill="#3A4446" d="M526.28 247.896C532.345 248.631 537.817 252.605 542.853 255.84C566.148 270.802 585.042 290.169 602.056 311.869C646.013 367.143 665.651 437.886 656.476 507.904C648.247 576.447 612.725 638.778 557.943 680.802C516.287 713.388 464.279 731.26 411.82 735.102C396.205 736.245 381.313 736.379 365.774 734.448C307.232 727.171 259.24 703.724 216.606 663.295L211.878 658.596C210.059 655.577 207.034 652.773 204.755 650.05C199.04 643.222 193.266 636.476 188.216 629.134C166.801 594.877 155.944 573.962 146.35 534.182C131.121 470.557 139.851 403.553 170.875 345.952C175.378 337.391 180.403 329.299 185.766 321.256C188.154 317.675 190.809 314.298 193.056 310.623C192.209 310.167 190.447 310.66 189.449 310.8C197.39 305.967 201.811 292.288 209.942 285.908C212.852 285.022 214.617 283.022 217.878 282.575C229.765 280.949 242.964 281.383 254.985 281.965C258.85 282.152 262.796 282.816 266.659 282.72C267.842 282.69 268.754 282.36 269.743 281.688C269.859 281.609 269.969 281.521 270.082 281.437L270.205 282.575L270.546 281.718C270.429 282.363 270.3 282.834 269.758 283.261C261.689 289.557 253.913 296.22 246.454 303.228C241.343 307.999 236.425 312.972 231.711 318.135C212.979 338.8 199.083 363.459 189.09 389.42C165.418 450.918 169.354 512.92 196.067 572.683C200.741 583.14 206.815 593.082 213.222 602.556C239.649 641.633 275.068 668.735 319.047 685.428C331.955 690.327 345.683 693.519 359.289 695.734C404.252 703.476 450.507 697.395 491.939 678.293C545.855 654 587.079 605.895 607.798 551.054C627.386 499.206 624.362 434.939 601.437 384.586C582.29 342.532 545.197 304.038 505.348 281.037C499.373 277.587 493.012 273.673 486.556 271.246C492.873 268.193 499.028 264.701 505.208 261.379C509.268 259.196 513.674 257.156 517.517 254.62C520.548 252.619 523.408 250.134 526.28 247.896Z"/>
	<path fill="#1C2325" d="M407.211 306.615C421.303 305.262 436.657 306.443 450.724 307.864C466.165 309.424 489.859 312.099 503.686 319.268C516.657 325.992 529.842 340.414 539.017 351.71C546.035 360.351 552.701 369.45 557.706 379.425C562.033 388.05 565.102 397.586 567.792 406.831C575.872 434.588 579.54 462.27 576.577 491.097C574.147 514.732 569.922 544.003 558.723 565.158C552.615 576.695 544.629 586.724 536.332 596.733C528.059 606.713 519.267 616.768 509.161 624.943C470.781 655.985 425.224 673.164 375.444 667.813C337.758 663.149 299.207 647.644 270.572 622.39C264.964 617.444 259.259 612.289 254.306 606.674C225.991 574.579 206.421 526.767 203.781 484.115C202.146 457.699 205.364 433.098 213.342 407.901C215.672 400.544 218.161 393.108 221.508 386.141C224.737 379.417 228.912 373.089 232.923 366.808C237.43 359.75 242.201 352.633 247.78 346.37C257.216 335.778 271.326 325.374 284.672 320.323C291.334 317.801 298.746 316.815 305.738 315.612C339.195 309.854 373.378 308.622 407.211 306.615Z"/>
	<path fill="#C69E4C" d="M275.05 398.96C276.4 398.858 277.778 398.74 279.131 398.846C282.534 399.11 285.863 400.469 288.791 402.161C301.663 409.597 313.282 420.108 324.95 429.291C337.159 438.898 358.033 453.588 367.444 465.05C371.321 469.772 373.553 476.416 372.939 482.52C372.42 487.682 370.218 491.838 366.899 495.76C363.183 500.15 358.492 503.666 354.083 507.322C346.859 513.314 339.535 519.133 332.184 524.965L288.257 560.453C284.623 563.367 281.249 565.057 276.773 566.315C274.042 565.68 271.502 564.885 269.142 563.338C263.902 559.901 259.911 554.009 258.74 547.842C257.795 543.045 258.604 538.068 261.019 533.817C267.337 522.813 297.535 502.526 308.423 494.439C312.104 491.706 317.454 488.588 319.885 484.672C320.9 483.038 321.009 481.56 320.05 479.876C317.702 475.755 311.648 472.07 307.959 469.191C299.258 462.437 290.619 455.602 282.044 448.689C276.051 443.912 269.254 439.16 264.276 433.3C261.85 430.444 259.966 427.174 259.052 423.522C257.661 417.965 258.87 412.767 261.782 407.926C265.03 402.527 269.083 400.466 275.05 398.96Z"/>
	<path fill="#C69E4C" d="M508.604 519.634C511.075 521.311 513.796 524.205 515.79 526.431C519.459 530.526 522.128 534.99 521.769 540.688C521.422 546.195 518.393 551.861 514.273 555.478C510.55 558.778 505.66 560.448 500.695 560.116C497.258 559.863 494.86 558.371 492.109 556.461C482.922 550.081 472.354 539.747 463.625 532.315C450.543 521.175 431.794 507.201 420.918 494.491C416.186 488.961 414.1 484.042 414.744 476.708C415.661 466.257 421.476 460.09 429.168 453.67C442.457 442.579 456.94 432.46 470.964 422.32C479.126 416.418 487.614 409.34 496.564 404.754C499.618 403.189 502.585 402.059 506.093 402.472C510.978 403.046 516.628 406.485 519.622 410.379C522.859 414.589 523.811 419.731 523.124 424.931C522.441 430.098 519.435 435.006 516.043 438.854C507.26 448.815 486.313 462.075 475.097 470.88C472.216 473.14 468 476.261 467.549 480.127C469.079 487.076 497.62 509.283 504.316 515.811C505.776 517.035 507.333 518.212 508.604 519.634Z"/>
	<path fill="#D5A745" d="M504.316 515.811C505.776 517.035 507.333 518.212 508.604 519.634C507.842 520.237 506.598 520.626 505.607 520.448C504.417 520.235 504.257 519.791 503.63 518.866C503.473 517.569 503.769 516.934 504.316 515.811Z"/>
	<path fill="#503E23" d="M539.483 739.936C543.042 737.326 550.161 735.351 554.429 733.555C560.654 730.936 566.923 727.954 572.784 724.603C603.634 706.964 627.284 682.438 650.76 656.243C658.934 668.501 712.792 740.393 712.951 747.888C708.917 756.31 673.01 778.047 664.171 783.081C656.709 787.33 647.962 790.937 641.246 796.247C640.72 796.663 640.978 796.524 640.368 796.714C640.007 800.532 640.01 803.46 641.203 807.143C641.958 809.285 642.985 811.503 642.954 813.798L642.363 814.685L641.101 814.71C640.609 815.387 640.247 815.818 639.503 816.235C626.826 823.341 612.776 829.06 599.516 835.04C581.172 843.314 562.793 851.924 544.152 859.484C535.483 862.999 526.585 866.007 517.832 869.31C514.327 870.633 506.295 875.073 502.905 874.156C505.014 870.073 505.934 863.932 507.122 859.454L515.817 826.787L528.687 779.512C532.394 766.342 536.388 753.269 539.483 739.936Z"/>
	<path fill="#6C4A20" d="M641.203 807.143C641.958 809.285 642.985 811.503 642.954 813.798L642.363 814.685L641.101 814.71L640.436 814.897C639.832 814.698 639.861 814.828 639.593 814.062C638.993 812.344 640.327 808.616 641.203 807.143Z"/>
</svg>
