<?xml version="1.0" encoding="utf-8" standalone="no"?>
<!DOCTYPE svg PUBLIC "-//W3C//DTD SVG 1.1//EN"
  "http://www.w3.org/Graphics/SVG/1.1/DTD/svg11.dtd">
<svg xmlns:xlink="http://www.w3.org/1999/xlink" width="280.516611pt" height="280.512pt" viewBox="0 0 280.516611 280.512" xmlns="http://www.w3.org/2000/svg" version="1.1">
 <metadata>
  <rdf:RDF xmlns:dc="http://purl.org/dc/elements/1.1/" xmlns:cc="http://creativecommons.org/ns#" xmlns:rdf="http://www.w3.org/1999/02/22-rdf-syntax-ns#">
   <cc:Work>
    <dc:type rdf:resource="http://purl.org/dc/dcmitype/StillImage"/>
    <dc:date>2025-05-13T15:14:46.738907</dc:date>
    <dc:format>image/svg+xml</dc:format>
    <dc:creator>
     <cc:Agent>
      <dc:title>Matplotlib v3.5.1, https://matplotlib.org/</dc:title>
     </cc:Agent>
    </dc:creator>
   </cc:Work>
  </rdf:RDF>
 </metadata>
 <defs>
  <style type="text/css">*{stroke-linejoin: round; stroke-linecap: butt}</style>
 </defs>
 <g id="figure_1">
  <g id="patch_1">
   <path d="M 0 280.512 
L 280.516611 280.512 
L 280.516611 0 
L 0 0 
z
" style="fill: #ffffff"/>
  </g>
  <g id="axes_1">
   <g id="patch_2">
    <path d="M 140.258305 247.433433 
C 164.663428 247.433433 188.072266 237.737175 205.329294 220.480147 
C 222.586322 203.223119 232.28258 179.814282 232.28258 155.409159 
C 232.28258 131.004036 222.586322 107.595198 205.329294 90.33817 
C 188.072266 73.081142 164.663428 63.384884 140.258305 63.384884 
C 115.853182 63.384884 92.444344 73.081142 75.187316 90.33817 
C 57.930288 107.595198 48.23403 131.004036 48.23403 155.409159 
C 48.23403 179.814282 57.930288 203.223119 75.187316 220.480147 
C 92.444344 237.737175 115.853182 247.433433 140.258305 247.433433 
L 140.258305 247.433433 
z
" clip-path="url(#p60d9bc74a5)" style="fill: none; stroke: #000000; stroke-width: 15; stroke-linejoin: miter"/>
   </g>
   <g id="line2d_1">
    <path d="M 261.220401 225.246657 
L 260.321101 222.059594 
L 259.337846 218.897424 
L 258.271323 215.762358 
L 257.122277 212.656589 
L 255.891512 209.582287 
L 254.57989 206.541604 
L 253.188326 203.536665 
L 251.717794 200.569571 
L 250.169322 197.642397 
L 248.543994 194.75719 
L 246.842945 191.915968 
L 245.067366 189.120717 
L 243.218497 186.373392 
L 241.297632 183.675915 
L 239.306113 181.03017 
L 237.245334 178.438009 
L 235.116735 175.901244 
L 232.921805 173.421648 
L 230.662079 171.000957 
L 228.339137 168.640862 
L 225.954603 166.343013 
L 223.510144 164.109018 
L 221.00747 161.940439 
L 218.448332 159.838793 
L 215.834518 157.805547 
L 213.167856 155.842126 
L 210.450211 153.949901 
L 207.683483 152.130195 
L 204.869607 150.384282 
L 202.010551 148.713382 
L 199.108314 147.118663 
L 196.164925 145.60124 
L 193.182442 144.162175 
L 190.162952 142.802474 
L 187.108565 141.523088 
L 184.021417 140.32491 
L 180.903667 139.20878 
L 177.757495 138.175478 
L 174.585102 137.225726 
L 171.388705 136.360188 
L 168.170539 135.579469 
L 164.932856 134.884116 
L 161.677918 134.274615 
L 158.408003 133.751391 
L 155.125396 133.314812 
L 151.832393 132.965181 
L 148.531296 132.702744 
L 145.224415 132.527684 
L 141.914061 132.440123 
L 138.602549 132.440123 
L 135.292195 132.527684 
L 131.985314 132.702744 
L 128.684218 132.965181 
L 125.391215 133.314812 
L 122.108608 133.751391 
L 118.838692 134.274615 
L 115.583755 134.884116 
L 112.346071 135.579469 
L 109.127906 136.360188 
L 105.931509 137.225726 
L 102.759115 138.175478 
L 99.612944 139.20878 
L 96.495194 140.32491 
L 93.408046 141.523088 
L 90.353659 142.802474 
L 87.334168 144.162175 
L 84.351686 145.60124 
L 81.408297 147.118663 
L 78.50606 148.713382 
L 75.647003 150.384282 
L 72.833128 152.130195 
L 70.0664 153.949901 
L 67.348755 155.842126 
L 64.682093 157.805547 
L 62.068279 159.838793 
L 59.50914 161.940439 
L 57.006467 164.109018 
L 54.562008 166.343013 
L 52.177474 168.640862 
L 49.854532 171.000957 
L 47.594805 173.421648 
L 45.399875 175.901244 
L 43.271277 178.438009 
L 41.210498 181.03017 
L 39.218979 183.675915 
L 37.298114 186.373392 
L 35.449245 189.120717 
L 33.673665 191.915968 
L 31.972617 194.75719 
L 30.347288 197.642397 
L 28.798817 200.569571 
L 27.328285 203.536665 
L 25.936721 206.541604 
L 24.625098 209.582287 
L 23.394334 212.656589 
L 22.245288 215.762358 
L 21.178765 218.897424 
L 20.195509 222.059594 
L 19.29621 225.246657 
" clip-path="url(#p60d9bc74a5)" style="fill: none; stroke: #000000; stroke-width: 15; stroke-linecap: square"/>
   </g>
   <g id="line2d_2">
    <path d="M 140.258305 15.734161 
L 137.947878 18.106509 
L 135.700986 20.539118 
L 133.519201 23.030288 
L 131.404048 25.578275 
L 129.357008 28.181299 
L 127.37951 30.83754 
L 125.472938 33.545139 
L 123.638625 36.302204 
L 121.877854 39.106806 
L 120.191856 41.956985 
L 118.58181 44.850748 
L 117.048841 47.78607 
L 115.594023 50.7609 
L 114.218371 53.773157 
L 112.922848 56.820735 
L 111.70836 59.901503 
L 110.575757 63.013306 
L 109.525829 66.153969 
L 108.559312 69.321295 
L 107.676881 72.513069 
L 106.879153 75.727061 
L 106.166686 78.961021 
L 105.539978 82.21269 
L 104.999468 85.479792 
L 104.545533 88.760044 
L 104.178491 92.051152 
L 103.898598 95.350814 
L 103.706051 98.656723 
L 103.600984 101.966568 
L 103.58347 105.278033 
L 103.653521 108.588804 
L 103.811089 111.896565 
L 104.056064 115.199003 
L 104.388273 118.493809 
L 104.807486 121.778679 
L 105.313408 125.051316 
L 105.905686 128.309432 
L 106.583905 131.550748 
L 107.347592 134.772997 
L 108.196213 137.973927 
L 109.129174 141.1513 
L 110.145822 144.302892 
L 111.245447 147.426501 
L 112.42728 150.519943 
L 113.690494 153.581054 
L 115.034207 156.607694 
L 116.457478 159.597745 
L 117.959312 162.549119 
L 119.538659 165.45975 
L 121.194415 168.327603 
L 122.925422 171.150673 
L 124.730469 173.926986 
L 126.608294 176.654601 
L 128.557585 179.33161 
L 130.576977 181.956141 
L 132.66506 184.526359 
L 134.820372 187.040467 
L 137.041408 189.496707 
L 139.326612 191.893361 
L 141.674389 194.228753 
L 144.083095 196.50125 
L 146.551047 198.709263 
L 149.076519 200.851249 
L 151.657745 202.925709 
L 154.29292 204.931192 
L 156.9802 206.866297 
L 159.717709 208.72967 
L 162.50353 210.520009 
L 165.335715 212.236061 
L 168.212286 213.876626 
L 171.131229 215.440557 
L 174.090504 216.926761 
L 177.088041 218.334198 
L 180.121745 219.661884 
L 183.189494 220.908891 
L 186.289143 222.074346 
L 189.418524 223.157436 
L 192.57545 224.157402 
L 195.757712 225.073545 
L 198.963086 225.905224 
L 202.189329 226.651859 
L 205.434187 227.312926 
L 208.695389 227.887964 
L 211.970656 228.37657 
L 215.257697 228.778404 
L 218.554214 229.093183 
L 221.857902 229.320688 
L 225.16645 229.46076 
L 228.477545 229.5133 
L 231.788871 229.478272 
L 235.098114 229.355701 
L 238.402958 229.145672 
L 241.701094 228.848332 
L 244.990215 228.463889 
L 248.26802 227.992612 
L 251.532218 227.43483 
L 254.780527 226.790933 
L 258.010674 226.061372 
L 261.220401 225.246657 
" clip-path="url(#p60d9bc74a5)" style="fill: none; stroke: #000000; stroke-width: 15; stroke-linecap: square"/>
   </g>
   <g id="line2d_3">
    <path d="M 19.29621 225.246657 
L 22.505937 226.061372 
L 25.736084 226.790933 
L 28.984392 227.43483 
L 32.248591 227.992612 
L 35.526396 228.463889 
L 38.815516 228.848332 
L 42.113652 229.145672 
L 45.418497 229.355701 
L 48.727739 229.478272 
L 52.039066 229.5133 
L 55.350161 229.46076 
L 58.658709 229.320688 
L 61.962396 229.093183 
L 65.258913 228.778404 
L 68.545955 228.37657 
L 71.821222 227.887964 
L 75.082424 227.312926 
L 78.327282 226.651859 
L 81.553525 225.905224 
L 84.758899 225.073545 
L 87.941161 224.157402 
L 91.098086 223.157436 
L 94.227468 222.074346 
L 97.327116 220.908891 
L 100.394865 219.661884 
L 103.428569 218.334198 
L 106.426107 216.926761 
L 109.385382 215.440557 
L 112.304325 213.876626 
L 115.180895 212.236061 
L 118.013081 210.520009 
L 120.798902 208.72967 
L 123.53641 206.866297 
L 126.223691 204.931192 
L 128.858866 202.925709 
L 131.440092 200.851249 
L 133.965563 198.709263 
L 136.433515 196.50125 
L 138.842222 194.228753 
L 141.189998 191.893361 
L 143.475203 189.496707 
L 145.696238 187.040467 
L 147.851551 184.526359 
L 149.939633 181.956141 
L 151.959026 179.33161 
L 153.908316 176.654601 
L 155.786142 173.926986 
L 157.591189 171.150673 
L 159.322196 168.327603 
L 160.977952 165.45975 
L 162.557299 162.549119 
L 164.059133 159.597745 
L 165.482404 156.607694 
L 166.826116 153.581054 
L 168.089331 150.519943 
L 169.271163 147.426501 
L 170.370789 144.302892 
L 171.387437 141.1513 
L 172.320398 137.973927 
L 173.169018 134.772997 
L 173.932705 131.550748 
L 174.610925 128.309432 
L 175.203203 125.051316 
L 175.709125 121.778679 
L 176.128338 118.493809 
L 176.460547 115.199003 
L 176.705522 111.896565 
L 176.86309 108.588804 
L 176.933141 105.278033 
L 176.915627 101.966568 
L 176.81056 98.656723 
L 176.618012 95.350814 
L 176.33812 92.051152 
L 175.971078 88.760044 
L 175.517143 85.479792 
L 174.976633 82.21269 
L 174.349925 78.961021 
L 173.637458 75.727061 
L 172.83973 72.513069 
L 171.957299 69.321295 
L 170.990782 66.153969 
L 169.940854 63.013306 
L 168.80825 59.901503 
L 167.593762 56.820735 
L 166.29824 53.773157 
L 164.922588 50.7609 
L 163.467769 47.78607 
L 161.934801 44.850748 
L 160.324755 41.956985 
L 158.638756 39.106806 
L 156.877985 36.302204 
L 155.043673 33.545139 
L 153.137101 30.83754 
L 151.159603 28.181299 
L 149.112562 25.578275 
L 146.99741 23.030288 
L 144.815625 20.539118 
L 142.568733 18.106509 
L 140.258305 15.734161 
" clip-path="url(#p60d9bc74a5)" style="fill: none; stroke: #000000; stroke-width: 15; stroke-linecap: square"/>
   </g>
  </g>
 </g>
 <defs>
  <clipPath id="p60d9bc74a5">
   <rect x="7.2" y="7.2" width="266.116611" height="266.112"/>
  </clipPath>
 </defs>
</svg>
