<?xml version="1.0" standalone="no"?>
<!DOCTYPE svg PUBLIC "-//W3C//DTD SVG 20010904//EN"
 "http://www.w3.org/TR/2001/REC-SVG-20010904/DTD/svg10.dtd">
<svg version="1.0" xmlns="http://www.w3.org/2000/svg"
 width="512.000000pt" height="512.000000pt" viewBox="0 0 512.000000 512.000000"
 preserveAspectRatio="xMidYMid meet">

<g transform="translate(0.000000,512.000000) scale(0.100000,-0.100000)"
fill="#000000" stroke="none">
<path d="M0 2560 l0 -2560 2560 0 2560 0 0 2560 0 2560 -2560 0 -2560 0 0
-2560z m3595 1212 c47 -24 96 -73 120 -122 26 -50 29 -173 5 -226 -68 -157
-287 -205 -416 -91 -107 93 -123 250 -39 362 74 96 225 131 330 77z m-516
-149 c-10 -38 -19 -68 -19 -69 0 -1 -46 -4 -102 -7 -314 -19 -725 -201 -1033
-459 -440 -367 -641 -812 -493 -1091 84 -156 259 -225 543 -214 190 8 372 48
537 119 40 17 49 26 58 57 29 102 34 189 35 546 0 336 -2 373 -18 402 -20 38
-70 66 -149 83 l-58 13 0 92 0 92 38 7 c20 3 163 6 318 6 209 0 285 -3 297
-13 16 -11 17 -48 15 -490 -2 -262 1 -477 5 -477 5 0 82 73 171 163 172 172
247 271 312 412 50 108 78 224 72 300 l-5 61 58 32 58 32 10 -37 c45 -161 -38
-428 -206 -663 -81 -112 -259 -295 -399 -409 l-101 -82 -7 -53 c-16 -143 -96
-342 -181 -454 -91 -120 -232 -210 -400 -252 -77 -20 -305 -41 -375 -35 -19 2
-50 4 -67 4 l-33 1 0 119 0 120 48 5 c189 22 278 56 367 138 55 52 106 118 89
118 -4 0 -48 -13 -98 -29 -146 -46 -271 -64 -446 -64 -178 0 -263 18 -389 79
-175 86 -281 265 -281 475 0 260 162 572 439 849 378 377 911 631 1338 639
l72 1 -20 -67z"/>
</g>
</svg>
